<svg width="37" height="37" viewBox="0 0 36.6667 36.6667" fill="none" xmlns="http://www.w3.org/2000/svg">
<path d="M18.3333 0C14.7073 0 11.1628 1.07523 8.14789 3.08972C5.13299 5.10422 2.78316 7.96749 1.39555 11.3175C0.00794361 14.6674 -0.355118 18.3537 0.352278 21.91C1.05967 25.4663 2.80575 28.733 5.36972 31.297C7.93368 33.8609 11.2004 35.607 14.7567 36.3144C18.313 37.0218 21.9992 36.6587 25.3492 35.2711C28.6992 33.8835 31.5625 31.5337 33.577 28.5188C35.5914 25.5039 36.6667 21.9593 36.6667 18.3333C36.6609 13.4728 34.7276 8.81297 31.2906 5.37604C27.8537 1.93912 23.1939 0.00573412 18.3333 0ZM24.5117 24.5117C24.1991 24.8241 23.7753 24.9996 23.3333 24.9996C22.8914 24.9996 22.4676 24.8241 22.155 24.5117L17.155 19.5117C16.8424 19.1992 16.6668 18.7753 16.6667 18.3333V8.33333C16.6667 7.89131 16.8423 7.46738 17.1548 7.15482C17.4674 6.84226 17.8913 6.66667 18.3333 6.66667C18.7754 6.66667 19.1993 6.84226 19.5119 7.15482C19.8244 7.46738 20 7.89131 20 8.33333V17.6433L24.5117 22.155C24.8241 22.4675 24.9997 22.8914 24.9997 23.3333C24.9997 23.7753 24.8241 24.1991 24.5117 24.5117Z" fill="currentColor"/>
</svg>
