<svg width="40" height="35" viewBox="0 0 40.0001 34.5947" fill="none" xmlns="http://www.w3.org/2000/svg">
<path d="M20 34.5947C19.7977 34.5947 19.5954 34.5424 19.4141 34.4377C19.2173 34.3241 14.5399 31.6084 9.79534 27.5163C6.98331 25.0911 4.73863 22.6857 3.12379 20.3669C1.03411 17.3664 -0.0167512 14.4804 0.000201881 11.7887C0.0200456 8.6567 1.14184 5.71124 3.15918 3.49484C5.21058 1.24109 7.94823 0 10.868 0C14.6099 0 18.0311 2.09609 20.0001 5.41655C21.9691 2.09617 25.3902 0 29.1322 0C31.8906 0 34.5224 1.11984 36.543 3.15327C38.7605 5.38475 40.0204 8.53772 39.9998 11.8036C39.9828 14.4905 38.9122 17.3722 36.8179 20.3686C35.1981 22.6861 32.9565 25.0905 30.1555 27.515C25.4284 31.6067 20.7845 34.3224 20.5891 34.4359C20.407 34.5417 20.2034 34.5947 20 34.5947Z" fill="currentColor"/>
</svg>
