<svg width="40" height="40" viewBox="0 0 40 40" fill="none" xmlns="http://www.w3.org/2000/svg">
<circle cx="20" cy="7" r="7" fill="currentColor"/>
<circle cx="8" cy="11.5" r="5" fill="currentColor"/>
<circle cx="32" cy="11.5" r="4" fill="currentColor"/>
<path d="M30.0516 17.7267C29.7481 15.5867 28.7154 13.6303 27.1408 12.2127C25.5663 10.7951 23.5542 10.01 21.4696 10H19.5268C17.4422 10.01 15.4301 10.7951 13.8555 12.2127C12.281 13.6303 11.2482 15.5867 10.9447 17.7267L10.0135 24.4834C9.98373 24.7018 10.0034 24.9244 10.0709 25.1335C10.1384 25.3427 10.2519 25.5327 10.4024 25.6884C10.7676 26.0674 13.0081 28 20.5 28C27.9919 28 30.2269 26.0749 30.5976 25.6884C30.7481 25.5327 30.8616 25.3427 30.9291 25.1335C30.9966 24.9244 31.0163 24.7018 30.9865 24.4834L30.0516 17.7267Z" fill="currentColor"/>
<path d="M12 11.0156C10.1623 12.6604 8.96655 14.8713 8.61534 17.2739L7.91179 22C2.26435 21.9631 0.55301 19.9693 0.267786 19.5631C0.157534 19.4156 0.0788557 19.2481 0.0363987 19.0705C-0.00605826 18.8929 -0.011433 18.7089 0.020592 18.5293L0.438921 16.2401C0.656874 15.0437 1.16875 13.916 1.93116 12.9526C2.69357 11.9892 3.68402 11.2184 4.81853 10.7057C5.95304 10.193 7.19816 9.9535 8.44832 10.0075C9.69848 10.0614 10.9168 10.4072 12 11.0156Z" fill="currentColor"/>
<path d="M38.9811 18.5293C39.0105 18.7089 39.0056 18.8929 38.9666 19.0705C38.9277 19.2481 38.8556 19.4156 38.7545 19.5631C38.4931 19.9693 36.9243 21.9631 31.7475 22L31.1026 17.2739C30.7807 14.8713 29.6846 12.6604 28 11.0156C28.9929 10.4072 30.1097 10.0614 31.2557 10.0075C32.4017 9.9535 33.543 10.193 34.583 10.7057C35.623 11.2184 36.5309 11.9892 37.2298 12.9526C37.9286 13.916 38.3979 15.0437 38.5977 16.2401L38.9811 18.5293Z" fill="currentColor"/>
</svg>
