<svg width="37" height="40" viewBox="0 0 36.79 39.9315" fill="none" xmlns="http://www.w3.org/2000/svg">
<path d="M16.0458 0L12.4602 0.00128C9.19296 0.00128 6.5344 2.65952 6.5344 5.92704C6.5344 6.34976 6.58304 6.7792 6.67904 7.20768C3.44896 8.2256 1.21856 11.2461 1.21856 14.6579C1.21856 15.9325 1.53408 17.1875 2.12576 18.3072C0.81408 19.607 0 21.4086 0 23.3971C0 26.6426 2.16768 29.3898 5.1312 30.2704C5.02688 30.6758 4.97184 31.0925 4.97184 31.5149C4.97184 34.2675 7.2112 36.5066 9.96352 36.5066C10.2762 36.5066 10.5914 36.4752 10.9062 36.4141C11.0234 38.3734 12.6538 39.9315 14.6422 39.9315C16.6947 39.9315 18.385 38.2714 18.385 36.224V2.3392C18.3846 1.04928 17.336 0 16.0458 0Z" fill="currentColor"/>
<path d="M36.7895 23.3971C36.7895 21.409 35.9757 19.6074 34.6634 18.3069C35.2557 17.1878 35.5716 15.9325 35.5716 14.6582C35.5716 11.2464 33.3405 8.2256 30.1104 7.208C30.2068 6.77952 30.2551 6.34976 30.2551 5.92736C30.2551 2.65984 27.5965 0.00128 24.3287 0.00128L20.7431 0C19.4531 0 18.4042 1.04928 18.4042 2.33984V36.2499H18.4055C18.4474 38.4374 20.1082 39.9238 22.1463 39.9238C24.1348 39.9238 25.7661 38.3693 25.8832 36.4102C26.1978 36.4717 26.5136 36.505 26.8256 36.505C29.5783 36.505 31.8173 34.2666 31.8173 31.5146C31.8173 31.0918 31.7623 30.6755 31.6586 30.2707C34.6218 29.3898 36.7895 26.6426 36.7895 23.3971Z" fill="currentColor"/>
</svg>
