<svg width="44" height="44" viewBox="0 0 44 44" fill="none" xmlns="http://www.w3.org/2000/svg">
<path d="M41.6625 15.2613L43.0613 13.8614C43.6663 13.2559 44 12.4487 44 11.5919C44 10.7332 43.6663 9.92779 43.0595 9.32234L40.1518 6.41251L41.6295 4.93374C42.3463 4.21637 42.3463 3.05684 41.6295 2.33947C40.9127 1.6221 39.754 1.6221 39.0372 2.33947L37.5595 3.81824L34.6537 0.910241C33.4418 -0.302496 31.3298 -0.304331 30.1162 0.910241L28.7173 2.31012L28.237 1.82943C27.027 0.616689 24.9132 0.614854 23.6995 1.82943L22.6252 2.90456C21.3748 4.15582 21.3748 6.19234 22.6252 7.44544L28.2828 13.1073L13.1248 28.2766L7.46717 22.6074C6.21867 21.3561 4.18183 21.3598 2.9315 22.6074L1.85717 23.6825C1.25033 24.2898 0.916667 25.0971 0.916667 25.9539C0.916667 26.8125 1.25033 27.618 1.85717 28.2234L2.33933 28.7059L0.9405 30.1058C0.333667 30.7113 0 31.5185 0 32.3753C0 33.234 0.333667 34.0394 0.9405 34.6449L3.84817 37.5547L2.3705 39.0335C1.65367 39.7508 1.65367 40.9104 2.3705 41.6277C2.728 41.9855 3.19733 42.1653 3.66667 42.1653C4.136 42.1653 4.60533 41.9855 4.96283 41.6277L6.4405 40.149L9.34633 43.057C9.95317 43.6661 10.758 44 11.616 44C12.4722 44 13.2788 43.6661 13.8838 43.0588L15.2827 41.6589L15.763 42.1396C16.3698 42.7469 17.1747 43.0808 18.0327 43.0808C18.8888 43.0808 19.6955 42.7469 20.3005 42.1396L21.3748 41.0645C22.6252 39.8132 22.6252 37.7767 21.3748 36.5236L15.7172 30.8617L30.8752 15.6924L36.5328 21.3543C37.158 21.9799 37.9793 22.2918 38.8007 22.2918C39.622 22.2918 40.4433 21.9781 41.0685 21.3525L42.1428 20.2773C42.7497 19.67 43.0833 18.8646 43.0833 18.0078C43.0833 17.1492 42.7497 16.3437 42.1428 15.7383L41.6625 15.2613Z" fill="currentColor"/>
</svg>
