<svg width="27" height="40" viewBox="0 0 27.4478 39.9999" fill="none" xmlns="http://www.w3.org/2000/svg">
<path d="M22.2583 10.3872C21.9861 9.93711 21.4474 9.72318 20.9405 9.86448C20.4339 10.0058 20.0833 10.4675 20.0833 10.9933C20.0833 12.4237 18.9197 13.587 17.4896 13.587C16.0595 13.587 14.8959 12.4237 14.8959 10.9933V1.17187C14.8959 0.697928 14.6103 0.270682 14.1723 0.0894082C13.7344 -0.0921711 13.2306 0.00792633 12.8955 0.343314C12.7637 0.474845 9.63896 3.61815 6.47307 8.36698C4.60601 11.1673 3.11615 13.945 2.04498 16.6229C0.68817 20.0155 0 23.2632 0 26.2762C0 33.8433 6.15661 39.9999 13.724 39.9999C21.2912 39.9999 27.4478 33.8433 27.4478 26.2762C27.4481 21.4322 25.7019 16.0864 22.2583 10.3872ZM21.5435 25.9713C21.5435 26.6186 21.019 27.1432 20.3717 27.1432C19.7247 27.1432 19.1998 26.6186 19.1998 25.9713V23.7799L13.3648 29.6151C13.1448 29.8349 12.847 29.9581 12.536 29.9581C12.2253 29.9581 11.9272 29.8349 11.7074 29.6151L8.98589 26.8933L7.15178 28.7274C6.69402 29.1851 5.95214 29.1851 5.49438 28.7274C5.03661 28.2696 5.03661 27.5277 5.49438 27.07L8.15734 24.4073C8.6151 23.9498 9.35698 23.9498 9.81474 24.4076L12.536 27.1292L17.5427 22.1225H15.3509C14.7037 22.1225 14.1791 21.5979 14.1791 20.9506C14.1791 20.3033 14.7037 19.7787 15.3509 19.7787H20.372C21.019 19.7787 21.5439 20.3036 21.5439 20.9506V25.9713H21.5435Z" fill="currentColor"/>
</svg>
