<svg width="31" height="40" viewBox="0 0 31.3917 40" fill="none" xmlns="http://www.w3.org/2000/svg">
<path d="M15.6977 27.8641C14.5155 28.7639 12.0748 30.989 12.0748 34.0207C12.0748 36.0222 13.6991 37.6506 15.6959 37.6506C17.6926 37.6506 19.317 36.0222 19.317 34.0207C19.317 31.1496 16.8748 28.8199 15.6977 27.8641Z" fill="currentColor"/>
<path d="M24.1827 6.96192C23.7436 6.46528 22.9856 6.4352 22.5074 6.88161L16.993 12.0284V1.24989C16.993 0.347621 15.9051 -0.326519 15.0904 0.166293C14.9362 0.259575 11.2715 2.49739 7.56859 6.56122C3.06633 11.5025 0 17.5188 0 24.266C0 32.9418 7.04117 40 15.6959 40C12.4068 40 9.73101 37.3176 9.73101 34.0207C9.73101 28.6932 14.9035 25.5386 15.1237 25.4068C15.5096 25.1761 15.9928 25.1869 16.3681 25.4342C16.5842 25.5767 21.6606 28.9816 21.6606 34.0206C21.6607 37.3176 18.9849 40 15.6959 40C24.3505 40 31.3917 32.9418 31.3917 24.266C31.3917 17.7149 28.5009 11.8431 24.1827 6.96192Z" fill="currentColor"/>
</svg>
