<svg width="40" height="32" viewBox="0 0 40 32.2812" fill="none" xmlns="http://www.w3.org/2000/svg">
<path d="M35.7867 0.684687C35.576 0.262344 35.1523 0 34.6806 0H29.0978C28.1005 0 27.2777 0.81125 27.2635 1.80828L27.2367 4.57641C27.2304 5.22805 27.7569 5.75961 28.4085 5.75961H32.2732C32.4987 5.75961 32.7235 5.81398 32.915 5.93281C33.3172 6.18219 33.5221 6.63273 33.4666 7.08031L31.699 21.3211C31.6327 21.8558 31.2083 22.2873 30.6517 22.3464C30.2691 22.387 29.8916 22.2264 29.6365 21.9384C27.8253 19.8937 25.2232 18.7214 22.4938 18.7214C20.9167 18.7214 19.3542 19.1143 17.9753 19.8576C17.974 19.8583 17.9727 19.8587 17.9714 19.8594C17.1549 20.3 16.4073 20.857 15.7492 21.5151C15.5196 21.7447 15.2187 21.8595 14.9178 21.8595C14.6173 21.8595 14.3169 21.7451 14.0874 21.5162C13.6256 21.0558 13.6538 20.2814 14.1165 19.822C14.726 19.2168 15.3969 18.6809 16.1184 18.2218C15.5059 15.7241 13.2602 13.9198 10.6207 13.9198C5.35213 13.9198 0.956041 17.7273 0.0393228 22.7351C-0.11724 23.5905 0.20026 24.4605 0.87487 25.0094C6.6551 29.7117 13.86 32.2813 21.3606 32.2813C27.8404 32.2813 34.0762 30.3867 39.4279 26.797C40.8971 18.2939 39.4843 8.10156 35.7867 0.684687Z" fill="currentColor"/>
</svg>
