<svg width="35" height="35" viewBox="0 0 35 35" fill="none" xmlns="http://www.w3.org/2000/svg">
<path fill-rule="evenodd" clip-rule="evenodd" d="M31.25 35C33.3212 35 35 33.3212 35 31.25V16.25C35 14.1788 33.3212 12.5 31.25 12.5C28.195 12.5 23.055 12.5 20 12.5C17.9288 12.5 16.25 14.1788 16.25 16.25V31.25C16.25 33.3212 17.9288 35 20 35H31.25ZM10 35C12.0712 35 13.75 33.3212 13.75 31.25V16.25C13.75 14.1788 12.0712 12.5 10 12.5C8.14 12.5 5.61 12.5 3.75 12.5C1.67875 12.5 0 14.1788 0 16.25V31.25C0 33.3212 1.67875 35 3.75 35H10ZM35 6.25V3.75C35 1.67875 33.3212 0 31.25 0H3.75C1.67875 0 0 1.67875 0 3.75V6.25C0 8.32125 1.67875 10 3.75 10H31.25C33.3212 10 35 8.32125 35 6.25Z" fill="currentColor"/>
</svg>
