<svg width="16" height="14" viewBox="0 0 16 14" fill="none" xmlns="http://www.w3.org/2000/svg">
<path d="M15.5539 5.74631L12.0494 8.95233L12.8733 13.4898C12.9458 13.8519 12.5058 14.117 12.1541 13.9453L7.84539 11.8138V0C8.02846 0 8.21153 0.0759167 8.28999 0.23359L10.4541 4.35061L15.2728 5.00466C15.6755 5.0689 15.8239 5.49228 15.5539 5.74631Z" fill="#F2FD84"/>
<path d="M7.84547 0V11.8138L3.53681 13.9453C3.19094 14.1188 2.74438 13.856 2.81761 13.4898L3.64142 8.95233L0.136956 5.74631C-0.133071 5.49228 0.0146922 5.0689 0.418098 5.00466L5.23674 4.35061L7.40088 0.23359C7.47933 0.0759167 7.6624 0 7.84547 0Z" fill="#F2FD84"/>
</svg>
