<svg width="16" height="16" viewBox="0 0 16 16" fill="none" xmlns="http://www.w3.org/2000/svg">
<path d="M8 16C5.87827 16 3.84344 15.1571 2.34315 13.6569C0.842855 12.1566 0 10.1217 0 8C0 5.87827 0.842855 3.84344 2.34315 2.34315C3.84344 0.842855 5.87827 0 8 0C9.05058 0 10.0909 0.206926 11.0615 0.608964C12.0321 1.011 12.914 1.60028 13.6569 2.34315C14.3997 3.08601 14.989 3.96793 15.391 4.93853C15.7931 5.90914 16 6.94943 16 8C16 9.05058 15.7931 10.0909 15.391 11.0615C14.989 12.0321 14.3997 12.914 13.6569 13.6569C12.914 14.3997 12.0321 14.989 11.0615 15.391C10.0909 15.7931 9.05058 16 8 16Z" fill="#F2FD84"/>
<path d="M7.10973 11.1745C6.98323 11.1747 6.85794 11.1498 6.74106 11.1015C6.62418 11.0531 6.51801 10.9821 6.42867 10.8925L3.78671 8.25072C3.60826 8.06966 3.50862 7.82539 3.50953 7.57117C3.51043 7.31694 3.61181 7.07339 3.79155 6.8936C3.97129 6.71381 4.21482 6.61238 4.46904 6.61141C4.72326 6.61043 4.96756 6.71001 5.14867 6.88841L7.10956 8.84912L10.8511 5.10761C11.0317 4.92696 11.2767 4.82547 11.5322 4.82547C11.7877 4.82547 12.0327 4.92696 12.2134 5.10761C12.394 5.28827 12.4955 5.53329 12.4955 5.78877C12.4955 6.04425 12.394 6.28927 12.2134 6.46992L7.7908 10.8925C7.70145 10.9821 7.59529 11.0531 7.47841 11.1015C7.36153 11.1498 7.23624 11.1747 7.10973 11.1745Z" fill="#222222"/>
</svg>
